<svg width="19" height="19" viewBox="0 0 19 19" fill="none" xmlns="http://www.w3.org/2000/svg">
<g id="ImageSquareOutlined">
<path id="Vector (Stroke)" fill-rule="evenodd" clip-rule="evenodd" d="M1.78125 4.75C1.78125 3.1104 3.11041 1.78125 4.75 1.78125H14.25C15.8896 1.78125 17.2187 3.11041 17.2187 4.75V14.25C17.2187 15.8896 15.8896 17.2187 14.25 17.2187H4.75C3.1104 17.2187 1.78125 15.8896 1.78125 14.25V4.75ZM2.96875 12.1209V14.25C2.96875 15.2338 3.76624 16.0312 4.75 16.0312H14.0041L7.79078 9.81797C7.09516 9.12235 5.96734 9.12235 5.27172 9.81797L2.96875 12.1209ZM15.3236 15.6714L8.63047 8.97828C7.4711 7.81891 5.5914 7.81891 4.43203 8.97828L2.96875 10.4416V4.75C2.96875 3.76624 3.76624 2.96875 4.75 2.96875H14.25C15.2338 2.96875 16.0312 3.76624 16.0312 4.75V14.25C16.0312 14.8306 15.7535 15.3463 15.3236 15.6714ZM10.0938 6.82812C10.0938 5.68041 11.0242 4.75 12.1719 4.75C13.3196 4.75 14.25 5.68041 14.25 6.82812C14.25 7.97584 13.3196 8.90625 12.1719 8.90625C11.0242 8.90625 10.0938 7.97584 10.0938 6.82812ZM12.1719 5.9375C11.68 5.9375 11.2812 6.33625 11.2812 6.82812C11.2812 7.32 11.68 7.71875 12.1719 7.71875C12.6638 7.71875 13.0625 7.32 13.0625 6.82812C13.0625 6.33625 12.6638 5.9375 12.1719 5.9375Z" fill="#717171"/>
</g>
</svg>
